<svg viewBox="0 0 512 512" xmlns="http://www.w3.org/2000/svg" role="img" aria-label="BE Mastery logo">
  <defs>
    <linearGradient id="bg" x1="0" y1="0" x2="1" y2="1">
      <stop offset="0" stop-color="#6366f1"/>
      <stop offset="1" stop-color="#22d3ee"/>
    </linearGradient>
    <linearGradient id="bar" x1="0" y1="1" x2="0" y2="0">
      <stop offset="0" stop-color="#6366f1"/>
      <stop offset="1" stop-color="#22d3ee"/>
    </linearGradient>
  </defs>
  <!-- brand tile -->
  <rect width="512" height="512" rx="115" fill="url(#bg)"/>
  <!-- speech bubble -->
  <path d="M140 148 H372 A44 44 0 0 1 416 192 V312 A44 44 0 0 1 372 356 H250 L182 412 L192 356 H140 A44 44 0 0 1 96 312 V192 A44 44 0 0 1 140 148 Z" fill="#ffffff"/>
  <!-- rising voice bars: speaking + growth -->
  <rect x="158" y="252" width="40" height="60" rx="20" fill="url(#bar)"/>
  <rect x="222" y="214" width="40" height="98" rx="20" fill="url(#bar)"/>
  <rect x="286" y="176" width="40" height="136" rx="20" fill="url(#bar)"/>
  <!-- mastery spark -->
  <path d="M420 48 l13 35 35 13 -35 13 -13 35 -13 -35 -35 -13 35 -13 z" fill="#fbbf24"/>
</svg>
